<?xml version="1.0" encoding="utf-8"?>
<!-- Generator: Adobe Illustrator 16.2.1, SVG Export Plug-In . SVG Version: 6.00 Build 0)  -->
<!DOCTYPE svg PUBLIC "-//W3C//DTD SVG 1.1//EN" "http://www.w3.org/Graphics/SVG/1.1/DTD/svg11.dtd">
<svg version="1.1" id="Layer_1" xmlns="http://www.w3.org/2000/svg" xmlns:xlink="http://www.w3.org/1999/xlink" x="0px" y="0px"
	 width="215px" height="215px" viewBox="0 0 215 215" enable-background="new 0 0 215 215" xml:space="preserve">
<path fill="#00AA9E" d="M107.5,207.5c-55.14,0-100-44.859-100-100c0-55.14,44.86-100,100-100c55.141,0,100,44.86,100,100
	C207.5,162.641,162.641,207.5,107.5,207.5z"/>
<path fill="#17C6BA" d="M107.5,15c51.086,0,92.5,41.414,92.5,92.5S158.586,200,107.5,200S15,158.586,15,107.5S56.414,15,107.5,15
	 M107.5,0C78.786,0,51.791,11.182,31.486,31.486C11.182,51.79,0,78.786,0,107.5s11.182,55.71,31.486,76.014
	C51.791,203.818,78.786,215,107.5,215s55.71-11.182,76.014-31.486C203.818,163.21,215,136.214,215,107.5
	s-11.182-55.71-31.486-76.014C163.21,11.182,136.214,0,107.5,0L107.5,0z"/>
<g>
	<path fill="#FFFFFF" d="M164.5,151.967c0,0-0.225-21.587-1.543-23.823c-1.962-3.332-6.53-5.622-15.014-9.167
		c-8.454-3.534-11.157-6.516-11.157-12.9c0-3.834,2.58-2.581,3.716-9.598c0.47-2.912,2.75-0.049,3.187-6.693
		c0-2.65-1.245-3.31-1.245-3.31s0.633-3.917,0.88-6.936c0.308-3.76-1.895-13.47-13.629-13.47c-11.736,0-13.936,9.71-13.629,13.47
		c0.247,3.018,0.877,6.936,0.877,6.936s-1.242,0.66-1.242,3.31c0.437,6.645,2.715,3.781,3.187,6.693
		c1.133,7.017,3.716,5.764,3.716,9.598c0,4.34-1.256,7.108-4.716,9.547c18.472,9.245,20.947,11.13,20.947,19.396v16.946H164.5z
		 M108.773,122.186c-11.275-4.713-14.878-8.688-14.878-17.198c0-5.111,3.442-3.441,4.954-12.799
		c0.626-3.881,3.667-0.063,4.249-8.925c0-3.532-1.659-4.41-1.659-4.41s0.844-5.225,1.173-9.248
		c0.41-5.012-2.525-17.959-18.173-17.959c-15.646,0-18.583,12.948-18.171,17.959c0.33,4.023,1.171,9.248,1.171,9.248
		s-1.659,0.878-1.659,4.41c0.583,8.862,3.623,5.044,4.25,8.925c1.512,9.358,4.954,7.688,4.954,12.799
		c0,8.51-3.604,12.485-14.878,17.198c-3.436,1.436-9.607,3.66-9.607,9.013v20.769h79.194c0,0,0-12.286,0-15.572
		C129.694,131.513,120.082,126.913,108.773,122.186z"/>
</g>
</svg>
