<?xml version="1.0" encoding="utf-8"?>
<!-- Generator: Adobe Illustrator 16.2.1, SVG Export Plug-In . SVG Version: 6.00 Build 0)  -->
<!DOCTYPE svg PUBLIC "-//W3C//DTD SVG 1.1//EN" "http://www.w3.org/Graphics/SVG/1.1/DTD/svg11.dtd">
<svg version="1.1" id="Layer_1" xmlns="http://www.w3.org/2000/svg" xmlns:xlink="http://www.w3.org/1999/xlink" x="0px" y="0px"
	 width="215px" height="215px" viewBox="0 0 215 215" enable-background="new 0 0 215 215" xml:space="preserve">
<path fill="#005CB9" d="M109.145,205.462c-55.141,0-100-44.858-100-100c0-55.14,44.86-100,100-100c55.141,0,100,44.86,100,100
	C209.145,160.604,164.285,205.462,109.145,205.462z"/>
<path fill="#007AC7" d="M107.5,15c51.086,0,92.5,41.414,92.5,92.5S158.586,200,107.5,200S15,158.586,15,107.5S56.414,15,107.5,15
	 M107.5,0C78.786,0,51.791,11.182,31.486,31.486C11.182,51.79,0,78.786,0,107.5s11.182,55.71,31.486,76.014
	C51.791,203.818,78.786,215,107.5,215s55.71-11.182,76.014-31.486C203.818,163.21,215,136.214,215,107.5
	s-11.182-55.71-31.486-76.014C163.21,11.182,136.214,0,107.5,0L107.5,0z"/>
<g>
	<path fill="#FFFFFF" d="M141.158,81.909c-1.692,0-3.351,0.148-4.965,0.418c-4.031-13.172-16.513-22.772-31.295-22.772
		c-18.042,0-32.667,14.298-32.667,31.936c0,1.574,0.122,3.122,0.348,4.637c-0.866-0.1-1.742-0.167-2.634-0.167
		c-12.268,0-22.214,9.723-22.214,21.714c0,11.994,9.946,21.718,22.214,21.718h30.601v-23.337H87.65l21.495-28.25l21.495,28.25
		h-12.897v23.337h23.416c16.239,0,29.4-12.868,29.4-28.742C170.559,94.778,157.397,81.909,141.158,81.909z"/>
</g>
</svg>
