<?xml version="1.0" encoding="utf-8"?>
<!-- Generator: Adobe Illustrator 16.2.1, SVG Export Plug-In . SVG Version: 6.00 Build 0)  -->
<!DOCTYPE svg PUBLIC "-//W3C//DTD SVG 1.1//EN" "http://www.w3.org/Graphics/SVG/1.1/DTD/svg11.dtd">
<svg version="1.1" id="Layer_1" xmlns="http://www.w3.org/2000/svg" xmlns:xlink="http://www.w3.org/1999/xlink" x="0px" y="0px"
	 width="215px" height="215px" viewBox="0 0 215 215" enable-background="new 0 0 215 215" xml:space="preserve">
<path fill="#931638" d="M107.5,207.5c-55.14,0-100-44.859-100-100c0-55.14,44.86-100,100-100c55.141,0,100,44.86,100,100
	C207.5,162.641,162.641,207.5,107.5,207.5z"/>
<path fill="#BE7388" d="M107.5,15c51.086,0,92.5,41.414,92.5,92.5S158.586,200,107.5,200S15,158.586,15,107.5S56.414,15,107.5,15
	 M107.5,0C78.786,0,51.791,11.182,31.486,31.486C11.182,51.79,0,78.786,0,107.5s11.182,55.71,31.486,76.014
	C51.791,203.818,78.786,215,107.5,215s55.71-11.182,76.014-31.486C203.818,163.21,215,136.214,215,107.5
	s-11.182-55.71-31.486-76.014C163.21,11.182,136.214,0,107.5,0L107.5,0z"/>
<path fill="#FFFFFF" d="M160.412,118.746l-18.036-12.137h-11.122l19.264,14.779h-20.08c-0.575,0-1.098,0.291-1.356,0.751
	l-4.63,12.663H90.548l-4.629-12.663c-0.257-0.46-0.781-0.751-1.357-0.751h-20.08l19.266-14.779H72.624L54.59,118.746
	c-2.684,1.603-4.289,5.297-3.569,8.209l3.18,17.414c0.721,2.912,3.912,5.295,7.09,5.295h92.42c3.178,0,6.369-2.383,7.09-5.295
	l3.178-17.414C164.702,124.043,163.096,120.349,160.412,118.746z M136.961,82.364h-18.695V53.357H96.738v29.007H78.043
	l29.458,27.645L136.961,82.364z"/>
</svg>
