<?xml version="1.0" encoding="utf-8"?>
<!-- Generator: Adobe Illustrator 16.2.1, SVG Export Plug-In . SVG Version: 6.00 Build 0)  -->
<!DOCTYPE svg PUBLIC "-//W3C//DTD SVG 1.1//EN" "http://www.w3.org/Graphics/SVG/1.1/DTD/svg11.dtd">
<svg version="1.1" id="Layer_1" xmlns="http://www.w3.org/2000/svg" xmlns:xlink="http://www.w3.org/1999/xlink" x="0px" y="0px"
	 width="215px" height="215px" viewBox="0 0 215 215" enable-background="new 0 0 215 215" xml:space="preserve">
<path fill="#E28C05" d="M107.5,207.5c-55.14,0-100-44.859-100-100c0-55.14,44.86-100,100-100c55.141,0,100,44.86,100,100
	C207.5,162.641,162.641,207.5,107.5,207.5z"/>
<path fill="#F2A020" d="M107.5,15c51.086,0,92.5,41.414,92.5,92.5S158.586,200,107.5,200S15,158.586,15,107.5S56.414,15,107.5,15
	 M107.5,0C78.786,0,51.791,11.182,31.486,31.486C11.182,51.79,0,78.786,0,107.5s11.182,55.71,31.486,76.014
	C51.791,203.818,78.786,215,107.5,215s55.71-11.182,76.014-31.486C203.818,163.21,215,136.214,215,107.5
	s-11.182-55.71-31.486-76.014C163.21,11.182,136.214,0,107.5,0L107.5,0z"/>
<path fill="#FFFFFF" d="M64.293,121.16c2.83,11.463,6.425,16.471,18.435,21.721c12.009,5.252,17.712,10.979,22.423,10.979
	c4.71,0,10.052-5.018,22.062-10.268s8.805-6.848,11.635-18.311l-33.696,16.379L64.293,121.16z M163.168,91.25l-50.783-28.439
	c-3.979-2.228-10.488-2.228-14.468,0L47.135,91.25c-3.978,2.228-3.978,5.874,0,8.102l50.782,28.436
	c3.979,2.229,10.489,2.229,14.468,0l32.828-18.381l-35.598-8.339c-1.373,0.34-2.882,0.53-4.464,0.53
	c-6.412,0-11.611-3.092-11.611-6.908c0-3.815,5.199-6.908,11.611-6.908c4.979,0,9.214,1.869,10.862,4.487l37.705,12.375l9.449-5.292
	C167.146,97.124,167.146,93.478,163.168,91.25z M147.648,145.145c-0.389,2.346,7.828,6.201,8.611-0.662
	c3.529-30.936-2.541-39.839-2.541-39.839l-8.506,4.763C145.213,109.406,152.426,116.27,147.648,145.145z"/>
</svg>
