<?xml version="1.0" encoding="utf-8"?>
<!-- Generator: Adobe Illustrator 16.2.0, SVG Export Plug-In . SVG Version: 6.00 Build 0)  -->
<!DOCTYPE svg PUBLIC "-//W3C//DTD SVG 1.1//EN" "http://www.w3.org/Graphics/SVG/1.1/DTD/svg11.dtd">
<svg version="1.1" id="Layer_1" xmlns="http://www.w3.org/2000/svg" xmlns:xlink="http://www.w3.org/1999/xlink" x="0px" y="0px"
	 width="215px" height="215px" viewBox="0 0 215 215" enable-background="new 0 0 215 215" xml:space="preserve">
<g>
	<g>
		<path fill="#006B54" d="M107.5,207.5c-55.14,0-100-44.86-100-100s44.86-100,100-100s100,44.86,100,100S162.64,207.5,107.5,207.5z"
			/>
		<path fill="#119075" d="M107.5,15c51.086,0,92.5,41.414,92.5,92.5S158.586,200,107.5,200S15,158.586,15,107.5S56.414,15,107.5,15
			 M107.5,0C78.786,0,51.791,11.182,31.486,31.486C11.182,51.79,0,78.786,0,107.5s11.182,55.71,31.486,76.014
			C51.791,203.818,78.786,215,107.5,215s55.71-11.182,76.014-31.486C203.818,163.21,215,136.214,215,107.5
			s-11.182-55.71-31.486-76.014C163.21,11.182,136.214,0,107.5,0L107.5,0z"/>
	</g>
	<g>
		<path fill="#FFFFFF" d="M143.229,81.862c0-5.128-5.104-5.128-5.104-5.128h-61.25c0,0-5.104,0-5.104,5.128v5.127h71.457V81.862z
			 M127.917,66.479H87.083c0,0-5.104,0-5.104,5.127h51.041C133.021,66.479,127.917,66.479,127.917,66.479z M153.437,86.99
			c-3.021-3.035-3.021-3.035-3.021-3.035v8.162H64.584v-8.162c0,0,0,0-3.021,3.035c-3.021,3.034-5.185,3.85-3.969,10.259
			c1.21,6.385,7.067,41.405,7.938,46.145c0.955,5.194,6.238,5.126,6.238,5.126h71.457c0,0,5.283,0.068,6.238-5.126
			c0.871-4.74,6.727-39.76,7.938-46.145C158.621,90.839,156.457,90.024,153.437,86.99z M127.915,114.678c0,0,0,5.127-5.104,5.127
			H92.188c-5.104,0-5.104-5.127-5.104-5.127v-10.255h7.146v8.204h26.525v-8.204h7.159V114.678z"/>
	</g>
</g>
<g>
</g>
<g>
</g>
<g>
</g>
<g>
</g>
<g>
</g>
<g>
</g>
<g>
</g>
<g>
</g>
<g>
</g>
<g>
</g>
<g>
</g>
<g>
</g>
<g>
</g>
<g>
</g>
<g>
</g>
</svg>
