<?xml version="1.0" encoding="utf-8"?>
<!-- Generator: Adobe Illustrator 16.2.1, SVG Export Plug-In . SVG Version: 6.00 Build 0)  -->
<!DOCTYPE svg PUBLIC "-//W3C//DTD SVG 1.1//EN" "http://www.w3.org/Graphics/SVG/1.1/DTD/svg11.dtd">
<svg version="1.1" id="Layer_1" xmlns="http://www.w3.org/2000/svg" xmlns:xlink="http://www.w3.org/1999/xlink" x="0px" y="0px"
	 width="16px" height="32px" viewBox="0 0 16 32" enable-background="new 0 0 16 32" xml:space="preserve">
<path fill="#4D4D4D" d="M10.354,5.656C10.238,5.34,13.5,2.425,11.596,0.063C11.15-0.488,9.639,2.708,7.495,4.156
	C6.31,4.955,3.555,6.654,3.555,7.593v6.081c0,1.13,4.368,2.327,7.689,2.327c1.215,0,2.979-7.623,2.979-8.833
	C14.223,5.952,10.471,5.972,10.354,5.656z M2.667,5.741C2.082,5.741,0,6.096,0,8.516v4.31c0,2.419,2.082,2.685,2.667,2.685
	s-0.889-0.508-0.889-2.008V7.838C1.778,6.266,3.251,5.741,2.667,5.741z"/>
<path fill="#999999" d="M10.354,21.656c-0.115-0.316,3.146-3.23,1.242-5.593c-0.445-0.552-1.957,2.646-4.101,4.093
	c-1.185,0.799-3.939,2.498-3.939,3.438v6.08c0,1.131,4.368,2.326,7.689,2.326c1.215,0,2.979-7.622,2.979-8.832
	C14.223,21.951,10.471,21.973,10.354,21.656z M2.667,21.74C2.082,21.74,0,22.096,0,24.516v4.31c0,2.419,2.082,2.685,2.667,2.685
	s-0.889-0.508-0.889-2.008v-5.664C1.778,22.266,3.251,21.74,2.667,21.74z"/>
</svg>
