<?xml version="1.0" encoding="utf-8"?>
<!-- Generator: Adobe Illustrator 16.2.0, SVG Export Plug-In . SVG Version: 6.00 Build 0)  -->
<!DOCTYPE svg PUBLIC "-//W3C//DTD SVG 1.1//EN" "http://www.w3.org/Graphics/SVG/1.1/DTD/svg11.dtd">
<svg version="1.1" id="Layer_1" xmlns="http://www.w3.org/2000/svg" xmlns:xlink="http://www.w3.org/1999/xlink" x="0px" y="0px"
	 width="192px" height="60px" viewBox="0 0 192 60" enable-background="new 0 0 192 60" xml:space="preserve">
<g>
	<g>
		<path fill="#0072C6" d="M0.607,30.817V0.795l4.805-0.794v10.286c0.529-0.185,1.145-0.344,1.846-0.477
			c0.702-0.132,1.396-0.199,2.085-0.199c1.667,0,3.051,0.232,4.149,0.696c1.098,0.463,1.979,1.112,2.641,1.945
			c0.662,0.833,1.131,1.834,1.41,2.998c0.278,1.165,0.417,2.462,0.417,3.891v11.674h-4.805v-10.92c0-1.112-0.074-2.058-0.219-2.839
			c-0.145-0.781-0.383-1.415-0.714-1.906c-0.331-0.49-0.775-0.847-1.331-1.072c-0.556-0.225-1.245-0.338-2.065-0.338
			c-0.636,0-1.285,0.066-1.945,0.199c-0.663,0.132-1.152,0.251-1.47,0.357v16.52H0.607V30.817z"/>
		<path fill="#0072C6" d="M41.27,30.181c-0.953,0.291-2.151,0.557-3.594,0.794c-1.443,0.238-2.958,0.357-4.546,0.357
			c-1.641,0-3.112-0.251-4.408-0.754c-1.297-0.502-2.402-1.224-3.316-2.165c-0.913-0.939-1.615-2.078-2.105-3.415
			c-0.49-1.336-0.734-2.838-0.734-4.507c0-1.641,0.205-3.13,0.616-4.468c0.411-1.336,1.012-2.482,1.808-3.435
			c0.793-0.953,1.76-1.688,2.898-2.204c1.139-0.517,2.448-0.774,3.932-0.774c1.005,0,1.892,0.12,2.66,0.358
			c0.767,0.238,1.429,0.502,1.986,0.793V0.794L41.271,0L41.27,30.181L41.27,30.181z M27.491,20.372c0,2.118,0.503,3.779,1.509,4.984
			c1.006,1.205,2.396,1.807,4.169,1.807c0.767,0,1.422-0.032,1.966-0.099c0.542-0.066,0.985-0.139,1.33-0.218V14.932
			c-0.424-0.291-0.987-0.562-1.688-0.813c-0.703-0.251-1.45-0.377-2.244-0.377c-1.747,0-3.025,0.596-3.832,1.787
			C27.894,16.719,27.491,18.334,27.491,20.372z"/>
		<path fill="#0072C6" d="M47.386,10.722c0.927-0.264,2.131-0.517,3.614-0.753c1.482-0.239,3.124-0.358,4.924-0.358
			c1.694,0,3.11,0.232,4.25,0.696c1.138,0.463,2.045,1.112,2.72,1.945c0.675,0.833,1.151,1.841,1.429,3.018
			c0.278,1.178,0.417,2.468,0.417,3.871v11.675h-4.805V19.894c0-1.113-0.074-2.058-0.219-2.839
			c-0.145-0.781-0.383-1.415-0.714-1.906c-0.331-0.49-0.782-0.847-1.35-1.072c-0.569-0.225-1.265-0.338-2.085-0.338
			c-0.608,0-1.245,0.04-1.905,0.12c-0.663,0.079-1.151,0.145-1.469,0.198v16.759h-4.805L47.386,10.722L47.386,10.722z"/>
		<path fill="#0072C6" d="M76.017,28.195c0,0.926-0.311,1.681-0.933,2.263c-0.622,0.582-1.37,0.873-2.244,0.873
			c-0.9,0-1.655-0.291-2.264-0.873s-0.913-1.337-0.913-2.263s0.304-1.687,0.913-2.284c0.609-0.597,1.363-0.894,2.264-0.894
			c0.873,0,1.621,0.299,2.244,0.894C75.706,26.508,76.017,27.27,76.017,28.195z"/>
		<path fill="#848585" d="M81.536,11c0.767-0.212,1.8-0.45,3.098-0.715c1.297-0.264,2.885-0.397,4.767-0.397
			c1.561,0,2.863,0.226,3.911,0.675c1.046,0.451,1.88,1.092,2.503,1.925c0.62,0.835,1.064,1.834,1.328,2.999
			c0.267,1.166,0.398,2.449,0.398,3.851v11.477h-2.58V20.173c0-1.456-0.1-2.687-0.299-3.694c-0.198-1.006-0.529-1.827-0.994-2.462
			c-0.463-0.636-1.07-1.092-1.825-1.37s-1.702-0.417-2.841-0.417c-1.217,0-2.27,0.066-3.157,0.198
			c-0.887,0.132-1.463,0.252-1.727,0.357v18.028h-2.581V11H81.536z"/>
		<path fill="#848585" d="M104.132,30.817V0.478l2.58-0.477v10.881c0.849-0.318,1.708-0.562,2.581-0.735
			c0.873-0.171,1.748-0.258,2.621-0.258c1.587,0,2.912,0.226,3.972,0.675c1.058,0.451,1.905,1.092,2.542,1.925
			c0.636,0.835,1.076,1.834,1.331,2.999c0.25,1.166,0.376,2.449,0.376,3.851v11.477h-2.58V20.173c0-1.456-0.1-2.687-0.299-3.694
			c-0.198-1.006-0.53-1.827-0.994-2.462c-0.463-0.636-1.078-1.092-1.847-1.37c-0.767-0.278-1.732-0.417-2.898-0.417
			c-0.45,0-0.932,0.04-1.449,0.119c-0.517,0.079-1,0.166-1.45,0.258c-0.45,0.093-0.854,0.192-1.21,0.298
			c-0.357,0.106-0.59,0.185-0.695,0.238v17.672h-2.58V30.817z"/>
		<path fill="#848585" d="M130.935,28.989c1.482,0,2.706-0.244,3.673-0.733c0.968-0.49,1.449-1.317,1.449-2.483
			c0-0.556-0.085-1.032-0.258-1.429c-0.171-0.396-0.456-0.754-0.854-1.073c-0.396-0.317-0.92-0.621-1.568-0.913
			c-0.647-0.291-1.449-0.635-2.401-1.032c-0.769-0.318-1.496-0.642-2.184-0.972c-0.688-0.331-1.298-0.715-1.827-1.151
			c-0.53-0.437-0.953-0.96-1.271-1.568c-0.317-0.609-0.475-1.35-0.475-2.223c0-1.668,0.628-3.018,1.886-4.051
			c1.257-1.032,2.984-1.549,5.183-1.549c1.402,0,2.561,0.119,3.475,0.357c0.914,0.239,1.555,0.451,1.927,0.636l-0.598,2.303
			c-0.316-0.159-0.852-0.371-1.608-0.636c-0.753-0.264-1.86-0.396-3.316-0.396c-0.582,0-1.131,0.061-1.646,0.179
			c-0.517,0.119-0.973,0.306-1.37,0.557c-0.396,0.251-0.714,0.57-0.953,0.955c-0.238,0.385-0.356,0.854-0.356,1.412
			c0,0.557,0.104,1.035,0.316,1.432c0.213,0.399,0.523,0.75,0.933,1.055c0.412,0.306,0.914,0.59,1.51,0.853
			c0.596,0.264,1.276,0.553,2.045,0.869c0.794,0.316,1.555,0.64,2.284,0.968c0.728,0.329,1.369,0.726,1.927,1.188
			c0.555,0.464,1.005,1.02,1.348,1.669c0.344,0.648,0.519,1.463,0.519,2.441c0,1.854-0.694,3.257-2.086,4.21
			c-1.389,0.953-3.291,1.43-5.698,1.43c-1.801,0-3.177-0.152-4.129-0.456c-0.953-0.304-1.589-0.537-1.905-0.696l0.673-2.342
			c0.08,0.054,0.253,0.139,0.519,0.258c0.264,0.118,0.621,0.252,1.07,0.398c0.45,0.146,0.986,0.271,1.609,0.376
			C129.392,28.936,130.113,28.989,130.935,28.989z"/>
		<path fill="#848585" d="M147.376,29.108c0,0.609-0.192,1.127-0.576,1.55s-0.92,0.634-1.608,0.634s-1.227-0.211-1.608-0.634
			c-0.384-0.423-0.576-0.94-0.576-1.55c0-0.608,0.192-1.124,0.576-1.548c0.382-0.424,0.92-0.636,1.608-0.636
			c0.687,0,1.225,0.211,1.608,0.636C147.182,27.983,147.376,28.5,147.376,29.108z"/>
		<path fill="#848585" d="M169.255,30.102c-0.767,0.213-1.799,0.451-3.097,0.716c-1.299,0.264-2.886,0.396-4.766,0.396
			c-1.537,0-2.819-0.226-3.852-0.675c-1.032-0.45-1.866-1.086-2.503-1.907c-0.635-0.821-1.092-1.813-1.37-2.978
			c-0.277-1.165-0.417-2.449-0.417-3.852V10.286h2.583v10.683c0,1.456,0.104,2.688,0.318,3.693c0.211,1.006,0.555,1.821,1.032,2.442
			c0.475,0.622,1.092,1.073,1.845,1.351c0.755,0.276,1.675,0.417,2.761,0.417c1.217,0,2.276-0.066,3.177-0.2
			c0.9-0.132,1.469-0.25,1.707-0.357V10.286h2.583v19.816H169.255z"/>
		<path fill="#848585" d="M181.247,19.638c0.936,0.66,1.88,1.42,2.833,2.283c0.954,0.864,1.894,1.799,2.821,2.806
			c0.925,1.007,1.799,2.039,2.617,3.1c0.818,1.06,1.516,2.057,2.092,2.991h-3.103c-0.621-1.045-1.343-2.068-2.161-3.072
			c-0.821-1.003-1.683-1.948-2.583-2.833c-0.902-0.886-1.803-1.695-2.703-2.424c-0.901-0.73-1.701-1.279-2.396-1.644v9.973h-2.581
			V0.479l2.581-0.477V19.13c0.553-0.473,1.241-1.119,2.064-1.935c0.822-0.816,1.664-1.639,2.519-2.464
			c0.855-0.827,1.662-1.627,2.423-2.402c0.759-0.775,1.397-1.456,1.911-2.041h3.155c-0.607,0.637-1.306,1.342-2.092,2.117
			c-0.788,0.776-1.606,1.583-2.46,2.424c-0.853,0.84-1.694,1.669-2.521,2.483C182.84,18.125,182.033,18.9,181.247,19.638z"/>
	</g>
	<g>
		<path fill="#0072C6" d="M6.93,44.063h1.542v11.015H6.93v-5.085H1.542v5.085H0V44.063h1.542v4.595H6.93V44.063z"/>
		<path fill="#0072C6" d="M10.648,50.962c0-0.73,0.105-1.369,0.318-1.915c0.211-0.545,0.493-0.998,0.843-1.359
			c0.35-0.36,0.751-0.631,1.208-0.811c0.455-0.181,0.922-0.271,1.399-0.271c1.112,0,1.966,0.348,2.559,1.041
			c0.593,0.695,0.89,1.752,0.89,3.172c0,0.063,0,0.146,0,0.246c0,0.102-0.005,0.194-0.016,0.277H12.19
			c0.064,0.859,0.312,1.511,0.747,1.956c0.434,0.444,1.113,0.668,2.035,0.668c0.519,0,0.956-0.045,1.312-0.137
			c0.354-0.089,0.622-0.177,0.803-0.262l0.207,1.24c-0.18,0.095-0.496,0.195-0.946,0.303c-0.451,0.104-0.962,0.158-1.534,0.158
			c-0.72,0-1.343-0.108-1.868-0.325c-0.525-0.218-0.957-0.518-1.295-0.898c-0.34-0.382-0.591-0.834-0.755-1.359
			C10.731,52.162,10.648,51.588,10.648,50.962z M16.323,50.151c0.011-0.667-0.156-1.216-0.5-1.645
			c-0.345-0.429-0.819-0.645-1.423-0.645c-0.339,0-0.639,0.067-0.898,0.199c-0.259,0.133-0.48,0.306-0.66,0.517
			c-0.181,0.212-0.321,0.454-0.421,0.73c-0.101,0.275-0.167,0.556-0.198,0.843H16.323z"/>
		<path fill="#0072C6" d="M22.665,46.607c0.593,0,1.094,0.077,1.502,0.23c0.408,0.154,0.736,0.372,0.985,0.652
			c0.249,0.281,0.427,0.614,0.533,1.001c0.106,0.387,0.159,0.812,0.159,1.28v5.165c-0.127,0.021-0.305,0.051-0.533,0.087
			c-0.228,0.038-0.484,0.072-0.771,0.104c-0.286,0.031-0.596,0.061-0.93,0.087c-0.333,0.026-0.665,0.04-0.993,0.04
			c-0.466,0-0.895-0.049-1.288-0.144c-0.392-0.096-0.731-0.247-1.018-0.452c-0.286-0.208-0.508-0.48-0.667-0.819
			c-0.159-0.339-0.238-0.747-0.238-1.224c0-0.455,0.092-0.849,0.278-1.176c0.186-0.328,0.437-0.594,0.755-0.796
			s0.688-0.35,1.112-0.444s0.869-0.144,1.335-0.144c0.148,0,0.302,0.008,0.461,0.024c0.159,0.016,0.31,0.038,0.453,0.062
			c0.143,0.027,0.268,0.051,0.374,0.072c0.106,0.021,0.181,0.038,0.223,0.049v-0.414c0-0.244-0.027-0.484-0.08-0.724
			c-0.053-0.238-0.148-0.45-0.286-0.636c-0.139-0.186-0.326-0.334-0.564-0.444c-0.238-0.112-0.548-0.167-0.93-0.167
			c-0.488,0-0.914,0.035-1.28,0.103c-0.365,0.069-0.639,0.142-0.818,0.216l-0.175-1.225c0.19-0.084,0.509-0.167,0.954-0.246
			C21.664,46.646,22.145,46.607,22.665,46.607z M22.792,54.015c0.35,0,0.66-0.008,0.93-0.023c0.27-0.017,0.496-0.044,0.676-0.088
			V51.44c-0.105-0.053-0.279-0.1-0.517-0.136c-0.239-0.037-0.528-0.056-0.867-0.056c-0.223,0-0.458,0.017-0.707,0.048
			c-0.249,0.031-0.477,0.099-0.684,0.198c-0.207,0.101-0.378,0.239-0.517,0.413c-0.138,0.176-0.207,0.406-0.207,0.692
			c0,0.529,0.169,0.898,0.508,1.104C21.749,53.912,22.208,54.015,22.792,54.015z"/>
		<path fill="#0072C6" d="M30.771,55.239c-0.911-0.021-1.558-0.219-1.939-0.588c-0.381-0.371-0.572-0.949-0.572-1.732v-9.92
			l1.478-0.255v9.934c0,0.245,0.021,0.446,0.063,0.604c0.042,0.159,0.111,0.286,0.207,0.382c0.096,0.096,0.223,0.166,0.381,0.215
			c0.159,0.048,0.355,0.088,0.588,0.118L30.771,55.239z"/>
		<path fill="#0072C6" d="M34.014,46.814h3.131v1.24h-3.131v3.814c0,0.413,0.032,0.755,0.095,1.025s0.159,0.482,0.286,0.635
			c0.127,0.154,0.286,0.263,0.477,0.326c0.191,0.064,0.414,0.096,0.667,0.096c0.445,0,0.803-0.05,1.073-0.15
			c0.27-0.101,0.458-0.172,0.564-0.215l0.286,1.224c-0.148,0.074-0.408,0.167-0.779,0.278c-0.372,0.11-0.794,0.167-1.271,0.167
			c-0.561,0-1.025-0.072-1.391-0.216c-0.366-0.143-0.66-0.356-0.882-0.643s-0.378-0.64-0.469-1.057
			c-0.09-0.419-0.135-0.903-0.135-1.455V44.51l1.478-0.255L34.014,46.814L34.014,46.814z"/>
		<path fill="#0072C6" d="M39.02,55.078V42.999l1.479-0.255v4.229c0.275-0.105,0.569-0.188,0.882-0.246
			c0.312-0.06,0.622-0.088,0.929-0.088c0.658,0,1.204,0.094,1.638,0.278c0.434,0.186,0.781,0.444,1.041,0.778
			c0.259,0.334,0.442,0.734,0.548,1.2c0.106,0.467,0.159,0.98,0.159,1.541v4.642h-1.478v-4.323c0-0.508-0.035-0.942-0.103-1.304
			c-0.07-0.358-0.183-0.65-0.342-0.873c-0.159-0.223-0.371-0.384-0.636-0.485c-0.265-0.101-0.593-0.151-0.985-0.151
			c-0.159,0-0.324,0.012-0.493,0.032c-0.169,0.021-0.331,0.045-0.484,0.071c-0.154,0.027-0.292,0.056-0.414,0.088
			c-0.122,0.032-0.21,0.059-0.262,0.08v6.865H39.02z"/>
		<path fill="#0072C6" d="M60.907,49.563c0,0.953-0.148,1.783-0.445,2.488c-0.297,0.704-0.715,1.286-1.256,1.748
			c-0.541,0.461-1.188,0.805-1.939,1.032s-1.578,0.342-2.479,0.342c-0.445,0-0.935-0.019-1.47-0.055
			c-0.536-0.039-1.019-0.109-1.454-0.216V44.223c0.435-0.105,0.918-0.177,1.454-0.215c0.536-0.037,1.025-0.055,1.47-0.055
			c0.901,0,1.728,0.114,2.479,0.341c0.752,0.228,1.399,0.572,1.939,1.033s0.958,1.044,1.256,1.748
			C60.759,47.781,60.907,48.609,60.907,49.563z M54.915,53.822c1.462,0,2.553-0.373,3.275-1.12c0.72-0.747,1.081-1.793,1.081-3.139
			c0-1.345-0.361-2.392-1.081-3.139c-0.722-0.747-1.812-1.122-3.275-1.122c-0.435,0-0.771,0.006-1.009,0.017
			c-0.239,0.011-0.406,0.021-0.501,0.032v8.424c0.095,0.011,0.262,0.021,0.501,0.032C54.144,53.818,54.48,53.822,54.915,53.822z"/>
		<path fill="#0072C6" d="M62.64,50.962c0-0.73,0.105-1.369,0.318-1.915c0.211-0.545,0.493-0.998,0.842-1.359
			c0.35-0.36,0.752-0.631,1.208-0.811c0.455-0.181,0.922-0.271,1.399-0.271c1.112,0,1.966,0.348,2.559,1.041
			c0.593,0.695,0.89,1.752,0.89,3.172c0,0.063,0,0.146,0,0.246c0,0.102-0.005,0.194-0.016,0.277h-5.659
			c0.063,0.859,0.312,1.511,0.747,1.956c0.434,0.444,1.113,0.668,2.035,0.668c0.518,0,0.956-0.045,1.311-0.137
			c0.354-0.089,0.622-0.177,0.803-0.262l0.207,1.24c-0.18,0.095-0.496,0.195-0.946,0.303c-0.451,0.104-0.961,0.158-1.534,0.158
			c-0.721,0-1.343-0.108-1.868-0.325c-0.525-0.218-0.957-0.518-1.295-0.898c-0.34-0.382-0.591-0.834-0.755-1.359
			C62.721,52.162,62.64,51.588,62.64,50.962z M68.314,50.151c0.011-0.667-0.156-1.216-0.5-1.645
			c-0.345-0.429-0.819-0.645-1.423-0.645c-0.338,0-0.639,0.067-0.898,0.199c-0.259,0.133-0.479,0.306-0.659,0.517
			c-0.181,0.212-0.321,0.454-0.421,0.73c-0.101,0.275-0.167,0.556-0.198,0.843H68.314z"/>
		<path fill="#0072C6" d="M78.438,46.814c-0.414,1.547-0.898,3.031-1.455,4.451c-0.556,1.419-1.095,2.691-1.613,3.814h-1.335
			c-0.519-1.123-1.057-2.396-1.613-3.814c-0.556-1.42-1.041-2.904-1.454-4.451h1.59c0.127,0.519,0.278,1.073,0.453,1.661
			s0.36,1.172,0.557,1.748c0.195,0.578,0.394,1.137,0.596,1.678c0.2,0.54,0.392,1.023,0.572,1.446
			c0.181-0.423,0.372-0.906,0.572-1.446c0.2-0.541,0.399-1.1,0.596-1.678c0.195-0.576,0.381-1.16,0.556-1.748
			s0.326-1.141,0.453-1.661H78.438z"/>
		<path fill="#0072C6" d="M79.281,50.962c0-0.73,0.105-1.369,0.318-1.915c0.211-0.545,0.493-0.998,0.842-1.359
			c0.35-0.36,0.752-0.631,1.208-0.811c0.455-0.181,0.923-0.271,1.399-0.271c1.113,0,1.966,0.348,2.558,1.041
			c0.594,0.695,0.891,1.752,0.891,3.172c0,0.063,0,0.146,0,0.246c0,0.102-0.005,0.194-0.016,0.277h-5.659
			c0.063,0.859,0.312,1.511,0.747,1.956c0.434,0.444,1.113,0.668,2.035,0.668c0.519,0,0.957-0.045,1.312-0.137
			c0.355-0.089,0.622-0.177,0.803-0.262l0.206,1.24c-0.18,0.095-0.495,0.195-0.945,0.303c-0.452,0.104-0.962,0.158-1.535,0.158
			c-0.72,0-1.343-0.108-1.867-0.325c-0.526-0.218-0.957-0.518-1.296-0.898c-0.34-0.382-0.591-0.834-0.755-1.359
			C79.363,52.162,79.281,51.588,79.281,50.962z M84.956,50.151c0.011-0.667-0.156-1.216-0.5-1.645s-0.819-0.645-1.423-0.645
			c-0.337,0-0.638,0.067-0.897,0.199c-0.259,0.133-0.48,0.306-0.66,0.517c-0.181,0.212-0.321,0.454-0.422,0.73
			c-0.101,0.275-0.167,0.556-0.198,0.843H84.956z"/>
		<path fill="#0072C6" d="M91.105,55.239c-0.91-0.021-1.557-0.219-1.938-0.588c-0.382-0.371-0.572-0.949-0.572-1.732v-9.92
			l1.479-0.255v9.934c0,0.245,0.021,0.446,0.063,0.604c0.041,0.159,0.111,0.286,0.206,0.382s0.224,0.166,0.382,0.215
			c0.158,0.048,0.354,0.088,0.588,0.118L91.105,55.239z"/>
		<path fill="#0072C6" d="M100.261,50.946c0,0.657-0.095,1.251-0.285,1.78s-0.458,0.985-0.803,1.367
			c-0.344,0.381-0.755,0.675-1.232,0.882c-0.476,0.206-0.995,0.311-1.556,0.311c-0.562,0-1.082-0.104-1.559-0.311
			c-0.477-0.207-0.889-0.501-1.231-0.882c-0.345-0.382-0.612-0.838-0.804-1.367c-0.189-0.529-0.285-1.123-0.285-1.78
			c0-0.646,0.096-1.237,0.285-1.772c0.191-0.535,0.459-0.993,0.804-1.375c0.343-0.381,0.755-0.676,1.231-0.882
			c0.477-0.207,0.996-0.311,1.559-0.311c0.561,0,1.08,0.104,1.556,0.311c0.478,0.206,0.889,0.501,1.232,0.882
			c0.345,0.382,0.612,0.841,0.803,1.375S100.261,50.3,100.261,50.946z M98.721,50.946c0-0.933-0.21-1.672-0.629-2.218
			c-0.417-0.545-0.987-0.817-1.707-0.817c-0.722,0-1.291,0.271-1.709,0.817c-0.42,0.546-0.629,1.284-0.629,2.218
			c0,0.933,0.209,1.672,0.629,2.217c0.418,0.547,0.987,0.818,1.709,0.818c0.72,0,1.288-0.271,1.707-0.818
			C98.511,52.618,98.721,51.879,98.721,50.946z"/>
		<path fill="#0072C6" d="M109.625,50.962c0,0.626-0.084,1.203-0.247,1.732c-0.165,0.53-0.405,0.985-0.724,1.367
			s-0.708,0.679-1.168,0.891c-0.462,0.211-0.989,0.317-1.581,0.317c-0.478,0-0.898-0.063-1.266-0.191
			c-0.364-0.126-0.638-0.248-0.816-0.365v3.307h-1.479V47.067c0.35-0.084,0.786-0.177,1.31-0.278c0.526-0.1,1.131-0.15,1.82-0.15
			c0.636,0,1.209,0.102,1.717,0.302c0.509,0.202,0.943,0.488,1.304,0.858c0.359,0.372,0.639,0.824,0.835,1.359
			C109.525,49.692,109.625,50.294,109.625,50.962z M108.082,50.962c0-0.965-0.238-1.705-0.716-2.225
			c-0.476-0.519-1.112-0.78-1.907-0.78c-0.444,0-0.792,0.017-1.04,0.049c-0.25,0.031-0.448,0.068-0.598,0.11v5.214
			c0.181,0.149,0.44,0.293,0.78,0.43c0.337,0.138,0.708,0.207,1.111,0.207c0.425,0,0.788-0.077,1.089-0.231
			c0.303-0.153,0.549-0.364,0.739-0.636c0.191-0.271,0.329-0.589,0.413-0.953C108.039,51.781,108.082,51.386,108.082,50.962z"/>
		<path fill="#0072C6" d="M111.245,50.962c0-0.73,0.104-1.369,0.315-1.915c0.214-0.545,0.493-0.998,0.845-1.359
			c0.349-0.36,0.751-0.631,1.206-0.811c0.456-0.181,0.922-0.271,1.399-0.271c1.113,0,1.966,0.348,2.56,1.041
			c0.594,0.695,0.891,1.752,0.891,3.172c0,0.063,0,0.146,0,0.246c0,0.102-0.006,0.194-0.016,0.277h-5.66
			c0.064,0.859,0.312,1.511,0.747,1.956c0.435,0.444,1.113,0.668,2.035,0.668c0.519,0,0.955-0.045,1.312-0.137
			c0.355-0.089,0.621-0.177,0.802-0.262l0.207,1.24c-0.18,0.095-0.496,0.195-0.946,0.303c-0.45,0.104-0.961,0.158-1.533,0.158
			c-0.72,0-1.343-0.108-1.868-0.325c-0.523-0.218-0.957-0.518-1.294-0.898c-0.34-0.382-0.592-0.834-0.755-1.359
			C111.326,52.162,111.245,51.588,111.245,50.962z M116.918,50.151c0.012-0.667-0.155-1.216-0.501-1.645
			c-0.345-0.429-0.818-0.645-1.422-0.645c-0.34,0-0.639,0.067-0.898,0.199c-0.26,0.133-0.479,0.306-0.659,0.517
			c-0.181,0.212-0.32,0.454-0.421,0.73c-0.102,0.275-0.167,0.556-0.198,0.843H116.918z"/>
		<path fill="#0072C6" d="M123.641,46.639c0.129,0,0.274,0.008,0.438,0.024c0.165,0.016,0.326,0.037,0.485,0.063
			c0.157,0.026,0.303,0.053,0.437,0.079c0.132,0.026,0.231,0.051,0.293,0.071l-0.254,1.288c-0.116-0.043-0.309-0.093-0.58-0.151
			c-0.27-0.059-0.617-0.087-1.04-0.087c-0.275,0-0.549,0.028-0.819,0.087c-0.27,0.059-0.448,0.099-0.533,0.119v6.945h-1.477v-7.914
			c0.35-0.128,0.784-0.247,1.302-0.358C122.413,46.694,122.997,46.639,123.641,46.639z"/>
		<path fill="#0072C6" d="M138.042,55.078c-0.233-0.392-0.501-0.83-0.802-1.318c-0.303-0.487-0.629-0.993-0.978-1.519
			c-0.35-0.523-0.714-1.058-1.089-1.597c-0.376-0.541-0.749-1.062-1.121-1.565c-0.371-0.503-0.731-0.979-1.081-1.423
			c-0.35-0.446-0.673-0.837-0.97-1.177v8.599h-1.51V44.063h1.225c0.496,0.529,1.03,1.147,1.597,1.852
			c0.568,0.704,1.129,1.431,1.686,2.178c0.555,0.747,1.081,1.48,1.574,2.201c0.492,0.722,0.907,1.362,1.247,1.924v-8.154h1.51
			v11.015H138.042z"/>
		<path fill="#0072C6" d="M141.507,50.962c0-0.73,0.104-1.369,0.318-1.915c0.211-0.545,0.493-0.998,0.842-1.359
			c0.35-0.36,0.753-0.631,1.209-0.811c0.454-0.181,0.922-0.271,1.398-0.271c1.112,0,1.966,0.348,2.56,1.041
			c0.592,0.695,0.889,1.752,0.889,3.172c0,0.063,0,0.146,0,0.246c0,0.102-0.004,0.194-0.016,0.277h-5.657
			c0.063,0.859,0.312,1.511,0.747,1.956c0.435,0.444,1.111,0.668,2.033,0.668c0.52,0,0.956-0.045,1.312-0.137
			c0.354-0.089,0.623-0.177,0.803-0.262l0.206,1.24c-0.179,0.095-0.495,0.195-0.945,0.303c-0.45,0.104-0.962,0.158-1.532,0.158
			c-0.722,0-1.345-0.108-1.869-0.325c-0.523-0.218-0.956-0.518-1.296-0.898c-0.339-0.382-0.59-0.834-0.755-1.359
			C141.59,52.162,141.507,51.588,141.507,50.962z M147.182,50.151c0.01-0.667-0.156-1.216-0.5-1.645
			c-0.346-0.429-0.819-0.645-1.422-0.645c-0.34,0-0.641,0.067-0.898,0.199c-0.261,0.133-0.481,0.306-0.66,0.517
			c-0.181,0.212-0.322,0.454-0.421,0.73c-0.103,0.275-0.167,0.556-0.2,0.843H147.182z"/>
		<path fill="#0072C6" d="M152.236,46.814h3.132v1.24h-3.132v3.814c0,0.413,0.031,0.755,0.096,1.025
			c0.063,0.271,0.158,0.482,0.285,0.635c0.128,0.154,0.287,0.263,0.477,0.326c0.192,0.064,0.414,0.096,0.668,0.096
			c0.446,0,0.803-0.05,1.073-0.15c0.27-0.101,0.457-0.172,0.564-0.215l0.285,1.224c-0.147,0.074-0.407,0.167-0.778,0.278
			c-0.37,0.11-0.796,0.167-1.271,0.167c-0.563,0-1.026-0.072-1.392-0.216c-0.366-0.143-0.659-0.356-0.883-0.643
			c-0.221-0.286-0.378-0.64-0.468-1.057c-0.089-0.419-0.136-0.903-0.136-1.455V44.51l1.479-0.255V46.814L152.236,46.814z"/>
		<path fill="#0072C6" d="M163.998,55.078c-0.297-0.763-0.611-1.634-0.946-2.613c-0.334-0.981-0.639-2.002-0.914-3.061
			c-0.273,1.059-0.578,2.079-0.904,3.061c-0.328,0.979-0.643,1.851-0.939,2.613h-1.286c-0.488-1.092-0.966-2.336-1.432-3.735
			c-0.466-1.398-0.906-2.908-1.319-4.529h1.591c0.104,0.498,0.23,1.038,0.38,1.621s0.305,1.166,0.47,1.748
			c0.163,0.584,0.336,1.145,0.517,1.686c0.181,0.54,0.349,1.012,0.508,1.414c0.181-0.497,0.359-1.025,0.534-1.581
			s0.341-1.118,0.5-1.686c0.159-0.566,0.309-1.122,0.452-1.668c0.144-0.547,0.268-1.058,0.375-1.534h1.224
			c0.096,0.477,0.212,0.988,0.35,1.534c0.138,0.545,0.285,1.102,0.444,1.668c0.159,0.567,0.326,1.13,0.501,1.686
			c0.174,0.556,0.351,1.084,0.533,1.581c0.159-0.402,0.326-0.874,0.501-1.414c0.174-0.541,0.345-1.102,0.516-1.686
			c0.169-0.582,0.328-1.165,0.478-1.748c0.147-0.582,0.273-1.122,0.38-1.621h1.527c-0.413,1.621-0.854,3.131-1.319,4.529
			c-0.466,1.399-0.943,2.645-1.432,3.735H163.998z"/>
		<path fill="#0072C6" d="M176.697,50.946c0,0.657-0.095,1.251-0.285,1.78s-0.458,0.985-0.804,1.367
			c-0.343,0.381-0.754,0.675-1.231,0.882c-0.476,0.206-0.995,0.311-1.559,0.311c-0.561,0-1.08-0.104-1.556-0.311
			c-0.478-0.207-0.889-0.501-1.232-0.882c-0.345-0.382-0.612-0.838-0.803-1.367s-0.285-1.123-0.285-1.78
			c0-0.646,0.095-1.237,0.285-1.772s0.458-0.993,0.803-1.375c0.344-0.381,0.755-0.676,1.232-0.882
			c0.476-0.207,0.995-0.311,1.556-0.311c0.563,0,1.083,0.104,1.559,0.311c0.478,0.206,0.889,0.501,1.231,0.882
			c0.346,0.382,0.613,0.841,0.804,1.375S176.697,50.3,176.697,50.946z M175.157,50.946c0-0.933-0.21-1.672-0.629-2.218
			c-0.417-0.545-0.987-0.817-1.71-0.817c-0.72,0-1.29,0.271-1.707,0.817c-0.419,0.546-0.629,1.284-0.629,2.218
			c0,0.933,0.21,1.672,0.629,2.217c0.417,0.547,0.987,0.818,1.707,0.818c0.723,0,1.291-0.271,1.71-0.818
			C174.947,52.618,175.157,51.879,175.157,50.946z"/>
		<path fill="#0072C6" d="M181.831,46.639c0.128,0,0.273,0.008,0.438,0.024c0.165,0.016,0.326,0.037,0.483,0.063
			c0.159,0.026,0.305,0.053,0.438,0.079c0.132,0.026,0.23,0.051,0.293,0.071l-0.254,1.288c-0.117-0.043-0.311-0.093-0.58-0.151
			c-0.271-0.059-0.617-0.087-1.04-0.087c-0.275,0-0.55,0.028-0.819,0.087c-0.271,0.059-0.448,0.099-0.533,0.119v6.945h-1.479v-7.914
			c0.352-0.128,0.786-0.247,1.304-0.358C180.604,46.694,181.186,46.639,181.831,46.639z"/>
		<path fill="#0072C6" d="M187.904,50.533c0.318,0.243,0.654,0.546,1.009,0.905c0.355,0.36,0.704,0.751,1.05,1.169
			c0.344,0.418,0.669,0.843,0.976,1.271c0.309,0.429,0.567,0.828,0.78,1.199h-1.732c-0.224-0.371-0.479-0.749-0.771-1.136
			s-0.598-0.758-0.916-1.113c-0.316-0.354-0.64-0.68-0.968-0.978c-0.33-0.295-0.643-0.545-0.939-0.747v3.974h-1.477V42.999
			l1.477-0.255v7.534c0.256-0.255,0.536-0.535,0.844-0.843c0.307-0.307,0.607-0.619,0.906-0.937
			c0.297-0.318,0.578-0.623,0.843-0.914c0.264-0.293,0.492-0.549,0.683-0.771h1.732c-0.244,0.265-0.508,0.556-0.795,0.874
			c-0.285,0.318-0.582,0.639-0.889,0.963c-0.309,0.322-0.617,0.646-0.932,0.969C188.473,49.942,188.178,50.247,187.904,50.533z"/>
	</g>
</g>
<g>
</g>
<g>
</g>
<g>
</g>
<g>
</g>
<g>
</g>
<g>
</g>
<g>
</g>
<g>
</g>
<g>
</g>
<g>
</g>
<g>
</g>
<g>
</g>
<g>
</g>
<g>
</g>
<g>
</g>
</svg>
