<?xml version="1.0" encoding="utf-8"?>
<!-- Generator: Adobe Illustrator 16.2.1, SVG Export Plug-In . SVG Version: 6.00 Build 0)  -->
<!DOCTYPE svg PUBLIC "-//W3C//DTD SVG 1.1//EN" "http://www.w3.org/Graphics/SVG/1.1/DTD/svg11.dtd">
<svg version="1.1" id="Layer_1" xmlns="http://www.w3.org/2000/svg" xmlns:xlink="http://www.w3.org/1999/xlink" x="0px" y="0px"
	 width="215px" height="215px" viewBox="0 0 215 215" enable-background="new 0 0 215 215" xml:space="preserve">
<path fill="#00ADC6" d="M107.5,207.5c-55.14,0-100-44.859-100-100c0-55.14,44.86-100,100-100c55.141,0,100,44.86,100,100
	C207.5,162.641,162.641,207.5,107.5,207.5z"/>
<path fill="#66CEDD" d="M107.5,15c51.086,0,92.5,41.414,92.5,92.5S158.586,200,107.5,200S15,158.586,15,107.5S56.414,15,107.5,15
	 M107.5,0C78.786,0,51.791,11.182,31.486,31.486C11.182,51.79,0,78.786,0,107.5s11.182,55.71,31.486,76.014
	C51.791,203.818,78.786,215,107.5,215s55.71-11.182,76.014-31.486C203.818,163.21,215,136.214,215,107.5
	s-11.182-55.71-31.486-76.014C163.21,11.182,136.214,0,107.5,0L107.5,0z"/>
<g>
	<path fill-rule="evenodd" clip-rule="evenodd" fill="#FFFFFF" d="M101.118,57.205h-5.03c-1.229,0-2.235,1.006-2.235,2.235v21.236
		h-19.76c-0.923,0-2.067,0.21-3.168,0.55c-1.103,0.337-2.161,0.806-2.911,1.321l-13.272,9.11c-0.75,0.514-1.124,1.193-1.124,1.872
		c0,0.678,0.375,1.355,1.124,1.871l13.272,9.11c0.75,0.514,1.809,0.983,2.911,1.323c1.101,0.339,2.246,0.549,3.168,0.549h19.76
		v49.177c0,1.229,1.006,2.235,2.235,2.235h5.03c1.229,0,2.235-1.007,2.235-2.235V59.44
		C103.354,58.211,102.347,57.205,101.118,57.205z M164.259,80.482l-13.272-9.111c-0.751-0.516-1.81-0.982-2.912-1.323
		c-1.1-0.338-2.246-0.549-3.167-0.549h-38.2l4.474,25.706h33.727c0.921,0,2.067-0.21,3.167-0.549
		c1.103-0.339,2.161-0.807,2.912-1.321l13.272-9.112c0.749-0.515,1.124-1.191,1.124-1.871
		C165.383,81.674,165.008,80.997,164.259,80.482z"/>
</g>
</svg>
