<?xml version="1.0" encoding="utf-8"?>
<!-- Generator: Adobe Illustrator 16.2.0, SVG Export Plug-In . SVG Version: 6.00 Build 0)  -->
<!DOCTYPE svg PUBLIC "-//W3C//DTD SVG 1.1//EN" "http://www.w3.org/Graphics/SVG/1.1/DTD/svg11.dtd">
<svg version="1.1" id="Layer_1" xmlns="http://www.w3.org/2000/svg" xmlns:xlink="http://www.w3.org/1999/xlink" x="0px" y="0px"
	 width="45px" height="18px" viewBox="0 0 45 18" enable-background="new 0 0 45 18" xml:space="preserve">
<rect fill="#007AC2" width="45" height="18"/>
<g>
	<path fill="#FFFFFF" d="M4.952,1.737h4.836l2.969,10.047h0.041l2.034-10.047h3.654l-3.073,14.49h-4.815L7.567,6.2H7.525
		L5.512,16.227H1.858L4.952,1.737z"/>
	<path fill="#FFFFFF" d="M19.915,1.737h3.882L22.655,7.28h4.588l1.142-5.543h3.882l-3.01,14.49h-3.883l1.288-6.207h-4.588
		l-1.288,6.207h-3.881L19.915,1.737z"/>
	<path fill="#FFFFFF" d="M42.479,5.017c-0.748-0.354-1.766-0.664-3.196-0.664c-1.537,0-2.782,0.228-2.782,1.39
		c0,2.057,5.626,1.288,5.626,5.688c0,4.006-3.716,5.044-7.079,5.044c-1.494,0-3.218-0.354-4.483-0.748l0.913-2.946
		c0.769,0.498,2.304,0.829,3.57,0.829c1.204,0,3.093-0.228,3.093-1.723c0-2.324-5.625-1.453-5.625-5.541
		c0-3.736,3.279-4.858,6.456-4.858c1.784,0,3.466,0.188,4.441,0.644L42.479,5.017z"/>
</g>
<g>
</g>
<g>
</g>
<g>
</g>
<g>
</g>
<g>
</g>
<g>
</g>
<g>
</g>
<g>
</g>
<g>
</g>
<g>
</g>
<g>
</g>
<g>
</g>
<g>
</g>
<g>
</g>
<g>
</g>
</svg>
