<?xml version="1.0" encoding="utf-8"?>
<!-- Generator: Adobe Illustrator 16.2.1, SVG Export Plug-In . SVG Version: 6.00 Build 0)  -->
<!DOCTYPE svg PUBLIC "-//W3C//DTD SVG 1.1//EN" "http://www.w3.org/Graphics/SVG/1.1/DTD/svg11.dtd">
<svg version="1.1" id="Layer_1" xmlns="http://www.w3.org/2000/svg" xmlns:xlink="http://www.w3.org/1999/xlink" x="0px" y="0px"
	 width="215px" height="215px" viewBox="0 0 215 215" enable-background="new 0 0 215 215" xml:space="preserve">
<path fill="#005CB9" d="M109.145,205.462c-55.141,0-100-44.859-100-100c0-55.14,44.86-100,100-100s100,44.86,100,100
	C209.145,160.603,164.285,205.462,109.145,205.462z"/>
<path fill="#007AC7" d="M107.5,15c51.086,0,92.5,41.414,92.5,92.5S158.586,200,107.5,200S15,158.586,15,107.5S56.414,15,107.5,15
	 M107.5,0C78.786,0,51.791,11.182,31.486,31.486C11.182,51.79,0,78.786,0,107.5s11.182,55.71,31.486,76.014
	C51.791,203.818,78.786,215,107.5,215s55.71-11.182,76.014-31.486C203.818,163.21,215,136.214,215,107.5
	s-11.182-55.71-31.486-76.014C163.21,11.182,136.214,0,107.5,0L107.5,0z"/>
<path fill="#FFFFFF" d="M80.468,86.735c1.218,0,2.395,0.185,3.502,0.526c4.184-4.688,8.822-8.954,13.847-12.741
	c-0.21-0.887-0.334-1.807-0.334-2.759c0-1.316,0.223-2.578,0.619-3.761c-5.626-4.038-11.748-7.425-18.258-10.046
	c-6.105,3.773-11.428,8.69-15.67,14.454c3.15,5.577,6.896,10.778,11.151,15.512C76.882,87.169,78.623,86.735,80.468,86.735z
	 M68.592,98.611c0-1.668,0.347-3.254,0.968-4.695c-3.812-4.183-7.264-8.7-10.289-13.511c-3.793,7.537-5.943,16.042-5.943,25.054
	c0,10.436,2.871,20.2,7.857,28.555c1.781-10.043,5.162-19.531,9.832-28.233C69.5,103.787,68.592,101.308,68.592,98.611z
	 M109.357,59.886c3.137,0,5.981,1.224,8.103,3.211c6.197-2.666,12.722-4.709,19.509-6.016c-8.192-4.722-17.689-7.438-27.825-7.438
	c-6.909,0-13.522,1.266-19.631,3.562c4.849,2.393,9.468,5.189,13.814,8.339C105.096,60.498,107.155,59.886,109.357,59.886z
	 M127.117,115.821c0.739-1.539,1.789-2.898,3.085-3.982c-3.505-10.789-9.058-20.655-16.21-29.142
	c-1.424,0.604-2.99,0.941-4.635,0.941c-2.576,0-4.952-0.83-6.898-2.223c-4.304,3.272-8.287,6.939-11.91,10.942
	c1.13,1.815,1.794,3.957,1.794,6.254c0,1.241-0.192,2.434-0.544,3.557C102.216,109.131,114.203,113.901,127.117,115.821z
	 M142.52,131.851c0.163,2.248,0.251,4.518,0.251,6.807c0,4.029-0.259,7.998-0.744,11.896c9.463-6.914,16.673-16.729,20.306-28.143
	c-4.304,1.041-8.722,1.785-13.229,2.219C148.044,127.878,145.626,130.507,142.52,131.851z M124.332,123.802
	c-13.776-2.281-26.551-7.537-37.669-15.071c-1.805,1.106-3.922,1.759-6.195,1.759c-0.835,0-1.648-0.09-2.435-0.254
	c-5.323,10.094-8.725,21.348-9.703,33.283c5.314,5.697,11.799,10.289,19.083,13.369C96.457,142.979,109.1,131.476,124.332,123.802z
	 M146.612,64.09c-8.944,0.863-17.488,3.107-25.441,6.481c0.043,0.392,0.062,0.788,0.062,1.19c0,1.875-0.445,3.642-1.218,5.219
	c7.943,9.329,14.117,20.201,18.014,32.102c4.827,0.087,8.956,3.044,10.73,7.245c5.375-0.545,10.605-1.572,15.646-3.055
	c0.358-2.553,0.555-5.158,0.555-7.813C164.96,89.053,157.881,74.302,146.612,64.09z M130.31,130.147
	c-14.223,6.662-26.111,16.92-34.723,29.463c4.341,1.084,8.88,1.67,13.557,1.67c8.42,0,16.397-1.877,23.555-5.215
	c1.149-5.627,1.759-11.447,1.759-17.408c0-2.154-0.098-4.287-0.259-6.398C132.765,131.798,131.449,131.079,130.31,130.147z"/>
</svg>
