<?xml version="1.0" encoding="utf-8"?>
<!-- Generator: Adobe Illustrator 16.2.0, SVG Export Plug-In . SVG Version: 6.00 Build 0)  -->
<!DOCTYPE svg PUBLIC "-//W3C//DTD SVG 1.1//EN" "http://www.w3.org/Graphics/SVG/1.1/DTD/svg11.dtd">
<svg version="1.1" id="Layer_1" xmlns="http://www.w3.org/2000/svg" xmlns:xlink="http://www.w3.org/1999/xlink" x="0px" y="0px"
	 width="192px" height="60px" viewBox="0 0 192 60" enable-background="new 0 0 192 60" xml:space="preserve">
<g transform="translate(-374.2178,-62.2364)">
	<path fill="#FFFFFF" d="M473.85,62.236c-14.166,0-25.65,11.482-25.65,25.648c0,5.034,1.449,9.728,3.954,13.69
		c-0.019,0.008-0.037,0.015-0.055,0.023l-11.16,11.158l9.48,9.48l11.562-11.564c-0.003-0.016-0.008-0.033-0.012-0.049
		c3.552,1.859,7.593,2.911,11.88,2.911c14.165,0,25.647-11.485,25.647-25.65C499.497,73.719,488.015,62.236,473.85,62.236z
		 M473.85,73.63c7.872,0,14.252,6.382,14.252,14.254c0,7.872-6.38,14.254-14.252,14.254s-14.254-6.383-14.254-14.254
		C459.595,80.012,465.978,73.63,473.85,73.63z"/>
</g>
</svg>
