<?xml version="1.0" encoding="utf-8"?>
<!-- Generator: Adobe Illustrator 16.2.0, SVG Export Plug-In . SVG Version: 6.00 Build 0)  -->
<!DOCTYPE svg PUBLIC "-//W3C//DTD SVG 1.1//EN" "http://www.w3.org/Graphics/SVG/1.1/DTD/svg11.dtd">
<svg version="1.1" id="Layer_1" xmlns="http://www.w3.org/2000/svg" xmlns:xlink="http://www.w3.org/1999/xlink" x="0px" y="0px"
	 width="40px" height="33px" viewBox="0 0 40 33" enable-background="new 0 0 40 33" xml:space="preserve">
<g>
	<rect fill="#0072C6" width="40" height="33"/>
	<g>
		<path fill="#FFFFFF" d="M27.163,21.69l-3.588-3.588c0.541-0.889,0.853-1.932,0.853-3.049C24.428,11.81,21.617,9,18.373,9
			c-3.243,0-5.873,2.63-5.873,5.874s2.811,6.054,6.054,6.054c1.079,0,2.089-0.292,2.957-0.8l3.607,3.607
			c0.353,0.354,0.926,0.354,1.277,0l0.896-0.895C27.644,22.487,27.516,22.042,27.163,21.69z M14.307,14.873
			c0-2.246,1.821-4.066,4.066-4.066c2.246,0,4.248,2.001,4.248,4.247c0,2.246-1.821,4.067-4.067,4.067
			C16.309,19.121,14.307,17.119,14.307,14.873z"/>
	</g>
</g>
</svg>
