<?xml version="1.0" encoding="utf-8"?>
<!-- Generator: Adobe Illustrator 16.2.1, SVG Export Plug-In . SVG Version: 6.00 Build 0)  -->
<!DOCTYPE svg PUBLIC "-//W3C//DTD SVG 1.1//EN" "http://www.w3.org/Graphics/SVG/1.1/DTD/svg11.dtd">
<svg version="1.1" id="Layer_1" xmlns="http://www.w3.org/2000/svg" xmlns:xlink="http://www.w3.org/1999/xlink" x="0px" y="0px"
	 width="215px" height="215px" viewBox="0 0 215 215" enable-background="new 0 0 215 215" xml:space="preserve">
<path fill="#005CB9" d="M109.145,205.462c-55.141,0-100-44.858-100-100c0-55.14,44.86-100,100-100c55.141,0,100,44.86,100,100
	C209.145,160.604,164.285,205.462,109.145,205.462z"/>
<path fill="#007AC7" d="M107.5,15c51.086,0,92.5,41.414,92.5,92.5S158.586,200,107.5,200S15,158.586,15,107.5S56.414,15,107.5,15
	 M107.5,0C78.786,0,51.791,11.182,31.486,31.486C11.182,51.79,0,78.786,0,107.5s11.182,55.71,31.486,76.014
	C51.791,203.818,78.786,215,107.5,215s55.71-11.182,76.014-31.486C203.818,163.21,215,136.214,215,107.5
	s-11.182-55.71-31.486-76.014C163.21,11.182,136.214,0,107.5,0L107.5,0z"/>
<g>
	<path fill="#FFFFFF" d="M156.42,140.719l-23.679-23.677c3.571-5.866,5.627-12.753,5.627-20.123
		c0-21.407-18.55-39.957-39.961-39.957c-21.406,0-38.762,17.356-38.762,38.765c0,21.409,18.55,39.957,39.957,39.957
		c7.118,0,13.785-1.928,19.517-5.275l23.806,23.806c2.33,2.331,6.106,2.331,8.435,0l5.905-5.902
		C159.594,145.98,158.75,143.049,156.42,140.719z M71.574,95.727c0-14.822,12.016-26.837,26.833-26.837
		c14.825,0,28.033,13.207,28.033,28.03c0,14.822-12.016,26.838-26.838,26.838C84.781,123.757,71.574,110.55,71.574,95.727z"/>
</g>
</svg>
